<svg width="638" height="450" viewBox="0 0 638 450" fill="none" xmlns="http://www.w3.org/2000/svg">
<path d="M548.48 114.484H614C614 114.484 608.206 103.211 591.337 104.857C575.233 106.427 574.417 99.3083 566.227 98.4361C558.037 97.564 551.203 104.269 548.48 114.484Z" fill="#F5F5F5"/>
<path d="M293.94 38.3667H407.069C407.069 38.3667 397.063 18.9069 367.945 21.7413C340.132 24.4668 338.714 12.2022 324.578 10.6759C310.442 9.14967 298.703 20.7602 293.94 38.3667Z" fill="#EBEBEB"/>
<path d="M516.234 48.0919C520.858 43.6834 521.264 36.1028 517.139 31.1601C513.015 26.2174 505.923 25.7843 501.299 30.1928C496.675 34.6012 496.27 42.1818 500.394 47.1245C504.518 52.0672 511.61 52.5003 516.234 48.0919Z" fill="#EBEBEB"/>
<path d="M508.663 62.5144C508.44 60.2041 508.365 57.8803 508.438 55.559C508.365 53.2378 508.439 50.9139 508.663 48.6036C508.886 50.9139 508.961 53.2378 508.887 55.559C508.961 57.8803 508.886 60.2041 508.663 62.5144Z" fill="#EBEBEB"/>
<path d="M529.948 39.1299C525.435 39.4497 520.907 39.4497 516.394 39.1299C520.907 38.8101 525.435 38.8101 529.948 39.1299Z" fill="#EBEBEB"/>
<path d="M508.805 18.8306C509.028 20.9475 509.103 23.0793 509.03 25.2082C509.104 27.3334 509.029 29.4616 508.805 31.5749C508.582 29.4616 508.507 27.3334 508.581 25.2082C508.508 23.0793 508.583 20.9475 508.805 18.8306Z" fill="#EBEBEB"/>
<path d="M502.757 39.9912C497.968 40.311 493.165 40.311 488.377 39.9912C493.165 39.6714 497.968 39.6714 502.757 39.9912Z" fill="#EBEBEB"/>
<path d="M503.706 35.2924C502.248 34.0861 500.883 32.7553 499.626 31.3132C498.274 29.9732 497.028 28.5145 495.904 26.9525C497.362 28.1587 498.726 29.4895 499.983 30.9316C501.332 32.2752 502.577 33.7336 503.706 35.2924Z" fill="#EBEBEB"/>
<path d="M520.688 27.1378C519.855 28.3867 518.901 29.5378 517.842 30.5719C516.886 31.7243 515.82 32.7657 514.66 33.6789C515.499 32.4293 516.456 31.275 517.516 30.234C518.471 29.0884 519.534 28.0509 520.688 27.1378Z" fill="#EBEBEB"/>
<path d="M521.493 52.8662C520.088 51.7003 518.775 50.4132 517.567 49.0178C516.255 47.7333 515.05 46.3289 513.966 44.8206C515.377 45.9789 516.691 47.2666 517.893 48.669C519.202 49.957 520.406 51.3611 521.493 52.8662Z" fill="#EBEBEB"/>
<path d="M506.307 43.9267C504.812 45.8683 503.204 47.7071 501.493 49.4321C499.891 51.2589 498.188 52.9808 496.393 54.5887C497.881 52.661 499.485 50.8401 501.197 49.1378C502.799 47.291 504.505 45.5507 506.307 43.9267Z" fill="#EBEBEB"/>
<path d="M96.0862 132.188H151.162C151.162 132.188 146.286 122.715 132.099 124.088C118.555 125.407 117.821 119.433 110.977 118.692C104.133 117.95 98.381 123.598 96.0862 132.188Z" fill="#EBEBEB"/>
<path d="M534.742 424.38C534.742 424.38 534.671 424.479 534.507 424.631L533.783 425.307C533.447 425.59 533.018 425.907 532.508 426.288C531.9 426.691 531.27 427.055 530.621 427.378C528.834 428.265 526.939 428.878 524.991 429.199C522.416 429.616 519.803 429.697 517.21 429.439C514.078 429.101 510.975 428.507 507.928 427.662C504.634 426.822 501.146 425.809 497.413 425.122C493.514 424.356 489.524 424.278 485.602 424.893C481.398 425.63 477.247 426.679 473.18 428.033C469.087 429.391 464.908 430.433 460.676 431.15C456.698 431.737 452.658 431.631 448.712 430.834C445.169 430.111 441.662 429.194 438.207 428.087C434.953 427.084 431.924 426.179 429.119 425.503C426.607 424.888 424.052 424.487 421.48 424.304C420.338 424.304 419.277 424.304 418.308 424.359C417.423 424.422 416.541 424.535 415.667 424.697L413.627 425.176L412.148 425.721L411.24 426.048C411.134 426.09 411.025 426.123 410.914 426.147C411.01 426.082 411.112 426.031 411.22 425.994L412.107 425.612C412.505 425.449 412.995 425.231 413.586 425.013L415.626 424.479C416.506 424.297 417.395 424.166 418.288 424.086C419.308 423.955 420.328 424.032 421.49 423.988C424.084 424.126 426.663 424.49 429.201 425.078C432.016 425.732 435.066 426.615 438.319 427.596C441.767 428.687 445.267 429.582 448.804 430.278C452.697 431.056 456.682 431.155 460.604 430.573C464.812 429.848 468.967 428.807 473.037 427.455C477.127 426.09 481.302 425.037 485.531 424.304C489.506 423.692 493.548 423.785 497.495 424.577C501.258 425.274 504.746 426.31 508.03 427.171C511.042 428.032 514.111 428.647 517.21 429.014C519.777 429.288 522.365 429.233 524.92 428.85C526.843 428.555 528.72 427.983 530.499 427.149C532.019 426.425 533.445 425.494 534.742 424.38Z" fill="#E0E0E0"/>
<path d="M149.418 441.878C149.348 441.966 149.269 442.047 149.183 442.118L148.459 442.805C148.126 443.081 147.697 443.408 147.174 443.786C144.889 445.308 142.333 446.303 139.667 446.707C137.092 447.124 134.479 447.205 131.885 446.947C128.753 446.606 125.651 446.008 122.604 445.159C119.31 444.32 115.822 443.306 112.079 442.63C108.184 441.86 104.197 441.779 100.278 442.39C96.0751 443.133 91.9245 444.182 87.8555 445.53C83.7596 446.892 79.5774 447.938 75.3412 448.659C71.363 449.242 67.3226 449.132 63.3776 448.332C59.8332 447.614 56.3267 446.697 52.8724 445.585C49.6189 444.593 46.5897 443.677 43.785 443.012C41.2709 442.385 38.7122 441.984 36.1356 441.813C35.0035 441.813 33.9428 441.747 32.9739 441.813C32.0881 441.878 31.2064 441.995 30.3323 442.161L28.2924 442.641L26.8136 443.175L25.8956 443.513C25.794 443.556 25.6878 443.585 25.5795 443.6L25.8752 443.459L26.7728 443.077C27.1705 442.914 27.6601 442.696 28.2414 442.478L30.2813 441.943C31.1606 441.756 32.0495 441.625 32.9433 441.551C33.9632 441.42 34.9831 441.485 36.1458 441.453C38.7404 441.58 41.3201 441.945 43.8564 442.543C46.6713 443.186 49.7209 444.08 52.9744 445.061C56.2279 446.042 59.7161 447.056 63.4489 447.743C67.3458 448.517 71.3341 448.613 75.2596 448.027C79.4721 447.336 83.6336 446.326 87.7128 445.007C91.8027 443.646 95.9779 442.597 100.207 441.867C104.178 441.252 108.216 441.34 112.16 442.129C115.934 442.837 119.422 443.873 122.706 444.723C125.718 445.585 128.786 446.201 131.885 446.566C134.449 446.844 137.034 446.793 139.586 446.413C141.513 446.116 143.393 445.54 145.175 444.702C146.697 443.959 148.122 443.01 149.418 441.878Z" fill="#E0E0E0"/>
<path d="M325.822 429.515C325.822 429.515 325.21 428.916 323.946 428.076C322.131 426.951 320.109 426.263 318.02 426.059C314.919 425.771 311.795 426.021 308.769 426.801C305.332 427.553 301.559 428.741 297.428 428.981C293.297 429.221 289.452 427.967 286.046 427.084C284.439 426.618 282.807 426.254 281.16 425.994C279.729 425.799 278.282 425.777 276.846 425.928C274.756 426.097 272.745 426.849 271.012 428.109C270.407 428.616 269.834 429.166 269.299 429.755C269.725 429.053 270.263 428.436 270.89 427.934C272.618 426.568 274.664 425.735 276.805 425.525C278.269 425.345 279.747 425.345 281.211 425.525C282.882 425.751 284.537 426.089 286.168 426.539C289.595 427.411 293.358 428.643 297.387 428.381C301.416 428.12 305.179 426.997 308.606 426.266C311.683 425.5 314.857 425.286 318 425.634C320.129 425.877 322.178 426.642 323.986 427.869C324.471 428.205 324.922 428.592 325.333 429.025C325.513 429.168 325.677 429.333 325.822 429.515Z" fill="#E0E0E0"/>
<path d="M545.155 212.688H543.156V290.233H545.155V212.688Z" fill="#E0E0E0"/>
<path d="M549.949 212.688H547.95V290.233H549.949V212.688Z" fill="#E0E0E0"/>
<path d="M568.226 212.688H566.227V290.233H568.226V212.688Z" fill="#E0E0E0"/>
<path d="M526.399 212.688H524.4V290.233H526.399V212.688Z" fill="#E0E0E0"/>
<path d="M545.145 212.688H524.4V214.879H545.145V212.688Z" fill="#E0E0E0"/>
<path d="M592.541 217.964H450.813V220.494H592.541V217.964Z" fill="#E0E0E0"/>
<path d="M568.226 251.455H525.399V253.82H568.226V251.455Z" fill="#E0E0E0"/>
<path d="M567.634 221.766L566.124 220.77L548.303 251.648L549.813 252.644L567.634 221.766Z" fill="#E0E0E0"/>
<path d="M544.723 220.839L543.213 219.843L525.392 250.722L526.902 251.718L544.723 220.839Z" fill="#E0E0E0"/>
<path d="M577.874 207.237H546.094V217.975H577.874V207.237Z" fill="#E0E0E0"/>
<path d="M483.501 219.556L533.6 178.565L551.438 210.431L552.111 210.006L533.814 177.344L533.467 177.627L483.032 218.902L483.501 219.556Z" fill="#E0E0E0"/>
<path d="M523.921 219.611L533.681 176.297L545.206 221.322L523.921 219.611ZM524.89 218.858L544.176 220.428L533.732 179.633L524.89 218.858Z" fill="#E0E0E0"/>
<path d="M637.05 288.565H421.613V302.672H637.05V288.565Z" fill="#E0E0E0"/>
<path d="M476.586 259.675H497.586V289.012H476.586V259.675ZM496.781 260.503H477.402V288.183H496.781V260.503Z" fill="#E0E0E0"/>
<path d="M513.956 260.056H497.168V290.233H513.956V260.056Z" fill="#E0E0E0"/>
<path d="M371.8 271.416H375.288V135.895H371.8V271.416Z" fill="#E0E0E0"/>
<path d="M363.406 271.416H366.894V135.895H363.406V271.416Z" fill="#E0E0E0"/>
<path d="M331.473 271.416H334.961V135.895H331.473V271.416Z" fill="#E0E0E0"/>
<path d="M404.57 271.416H408.058V135.895H404.57V271.416Z" fill="#E0E0E0"/>
<path d="M371.8 139.721H408.058V135.895H371.8V139.721Z" fill="#E0E0E0"/>
<path d="M288.973 149.533L536.659 149.533V145.118L288.973 145.118V149.533Z" fill="#E0E0E0"/>
<path d="M331.473 207.782H406.314V203.661H331.473V207.782Z" fill="#E0E0E0"/>
<path d="M363.642 205.719L366.29 203.974L335.146 150.01L332.499 151.756L363.642 205.719Z" fill="#E0E0E0"/>
<path d="M403.284 206.787L405.928 205.025L374.49 151.13L371.846 152.893L403.284 206.787Z" fill="#E0E0E0"/>
<path d="M314.613 145.118H370.158V126.356H314.613V145.118Z" fill="#E0E0E0"/>
<path d="M479.534 147.909L391.995 76.2617L360.795 131.949L359.643 131.207L391.607 74.1359L392.209 74.6265L480.36 146.764L479.534 147.909Z" fill="#E0E0E0"/>
<path d="M371.698 150.983L391.842 72.3043L408.905 147.985L371.698 150.983ZM391.76 78.0932L373.503 149.392L407.212 146.677L391.76 78.0932Z" fill="#E0E0E0"/>
<path d="M121.87 397.987C121.87 397.987 121.146 397.594 119.83 396.897C118.037 395.869 116.072 395.228 114.047 395.011C112.642 394.967 111.237 395.084 109.855 395.36C108.346 395.61 106.795 395.916 105.072 396.33C101.736 397.093 98.0444 398.194 94.0157 398.27C89.9871 398.347 86.2848 397.06 82.97 396.221C81.4039 395.786 79.8128 395.462 78.207 395.251C76.814 395.087 75.4083 395.087 74.0152 395.251C71.9879 395.447 70.0421 396.198 68.3649 397.431C67.7827 397.927 67.2276 398.459 66.7024 399.023C66.7918 398.839 66.9051 398.67 67.039 398.521C67.3878 398.046 67.7922 397.621 68.2425 397.257C69.9079 395.906 71.8859 395.066 73.9642 394.825C75.3879 394.623 76.8288 394.598 78.258 394.749C79.8843 394.938 81.4963 395.247 83.0822 395.676C86.4276 396.504 90.0687 397.747 94.0055 397.671C97.9424 397.594 101.614 396.526 104.97 395.785C106.653 395.392 108.274 395.098 109.794 394.858C111.204 394.596 112.637 394.501 114.067 394.575C116.134 394.829 118.128 395.542 119.922 396.668C120.564 397.049 121.044 397.355 121.37 397.584C121.555 397.69 121.723 397.826 121.87 397.987Z" fill="#263238"/>
<path d="M624.444 355.317C624.444 355.317 623.832 354.706 622.567 353.878C620.759 352.743 618.739 352.051 616.651 351.85C613.55 351.56 610.425 351.814 607.401 352.602C603.953 353.344 600.19 354.532 596.059 354.783C591.929 355.033 588.073 353.769 584.677 352.875C583.067 352.408 581.432 352.044 579.781 351.785C578.35 351.599 576.903 351.581 575.467 351.73C573.38 351.894 571.37 352.646 569.644 353.911C569.054 354.444 568.492 355.012 567.961 355.611C568.392 354.913 568.934 354.301 569.562 353.802C571.283 352.426 573.327 351.588 575.467 351.381C576.931 351.201 578.409 351.201 579.873 351.381C581.543 351.608 583.198 351.943 584.83 352.384C588.257 353.256 591.969 354.488 596.049 354.238C600.129 353.987 603.852 352.842 607.319 352.123C610.394 351.346 613.571 351.132 616.713 351.49C618.844 351.726 620.894 352.492 622.7 353.725C623.185 354.059 623.64 354.442 624.056 354.87C624.321 355.143 624.464 355.295 624.444 355.317Z" fill="#263238"/>
<path d="M59.4917 366.044C59.4917 366.099 58.8797 365.445 57.615 364.605C55.8044 363.48 53.7854 362.792 51.6995 362.589C48.5987 362.299 45.4746 362.55 42.4489 363.33C39.0016 364.082 35.2279 365.27 31.1074 365.51C26.9869 365.75 23.1215 364.496 19.7149 363.613C18.1082 363.147 16.4768 362.783 14.8295 362.523C13.3983 362.328 11.9511 362.307 10.5153 362.458C8.42567 362.626 6.41402 363.378 4.68138 364.638C4.06408 365.158 3.47816 365.718 2.92712 366.317C3.35307 365.615 3.89169 364.998 4.51819 364.496C6.24668 363.13 8.29279 362.297 10.4337 362.087C11.8975 361.907 13.3759 361.907 14.8397 362.087C16.5104 362.313 18.166 362.651 19.7965 363.101C23.2235 363.973 26.9359 365.205 31.0156 364.943C35.0953 364.682 38.8078 363.559 42.2857 362.828C45.3623 362.062 48.5368 361.848 51.6791 362.196C53.8093 362.437 55.8584 363.202 57.666 364.431C58.1529 364.767 58.6074 365.154 59.0225 365.587C59.1927 365.722 59.3498 365.876 59.4917 366.044Z" fill="#263238"/>
<path d="M580.822 400.385C580.527 400.331 580.237 400.251 579.955 400.145C579.384 399.982 578.557 399.698 577.497 399.339C575.365 398.619 572.326 397.42 568.481 396.275C566.391 395.648 564.26 395.193 562.106 394.913C559.64 394.602 557.148 394.602 554.681 394.913C549.449 395.523 543.829 397.235 537.751 398.063C534.787 398.51 531.78 398.51 528.816 398.063C525.95 397.649 523.227 397.028 520.657 396.45C515.506 395.261 510.794 394.433 506.817 394.651C503.672 394.726 500.576 395.491 497.719 396.897C496.957 397.308 496.218 397.767 495.506 398.27C495.267 398.469 495.015 398.647 494.751 398.805C495.617 397.969 496.585 397.261 497.627 396.7C500.489 395.195 503.618 394.359 506.806 394.248C510.886 393.975 515.608 394.782 520.769 395.937C525.93 397.093 531.672 398.499 537.72 397.496C543.738 396.668 549.368 394.978 554.651 394.378C557.154 394.062 559.684 394.062 562.188 394.378C564.36 394.686 566.508 395.167 568.613 395.817C572.458 397.028 575.477 398.281 577.589 399.088L580.016 399.993C580.296 400.094 580.566 400.226 580.822 400.385Z" fill="#263238"/>
<path d="M393.912 281.598H0V307.392H393.912V281.598Z" fill="#263238"/>
<path d="M138.668 282.143H100.727V228.942H138.668V282.143ZM101.747 281.053H137.648V230.033H101.747V281.053Z" fill="#263238"/>
<path d="M168.857 229.487H138.158V284.662H168.857V229.487Z" fill="#263238"/>
<path d="M225.891 83.1406H222.24V285.251H225.891V83.1406Z" fill="#263238"/>
<path d="M234.662 83.1406H231.011V285.251H234.662V83.1406Z" fill="#263238"/>
<path d="M268.085 83.1406H264.434V285.251H268.085V83.1406Z" fill="#263238"/>
<path d="M191.601 83.1406H187.95V285.251H191.601V83.1406Z" fill="#263238"/>
<path d="M225.881 83.1406H187.95V87.1525H225.881V83.1406Z" fill="#263238"/>
<path d="M312.543 92.7997H53.4028V97.4112H312.543V92.7997Z" fill="#263238"/>
<path d="M268.085 154.036H189.776V158.353H268.085V154.036Z" fill="#263238"/>
<path d="M267.027 99.7202L264.258 97.8943L231.674 154.354L234.443 156.179L267.027 99.7202Z" fill="#263238"/>
<path d="M225.051 98.089L222.282 96.2631L189.698 152.722L192.467 154.548L225.051 98.089Z" fill="#263238"/>
<path d="M285.719 73.1654H227.604V92.7997H285.719V73.1654Z" fill="#263238"/>
<path d="M113.048 95.5361L112.425 94.6748L205.105 18.8304L238.436 78.3438L237.569 78.9107L204.82 20.4439L113.048 95.5361Z" fill="#263238"/>
<path d="M225.738 98.6976L187.318 95.6015L204.932 17.4459L225.738 98.6976ZM188.552 94.6094L224.33 97.4875L204.952 21.8285L188.552 94.6094Z" fill="#263238"/>
<path d="M35.8705 171.86L38.9608 153.938L58.0537 92.6254L59.0226 92.9742L39.9399 154.21L37.0944 170.748L100.523 169.56L75.688 92.9742L76.6569 92.6144L101.951 170.617L35.8705 171.86Z" fill="#263238"/>
<path d="M44.8762 155.071H20.082V187.264H44.8762V155.071Z" fill="#263238"/>
<path d="M114.22 155.071H44.8865V187.264H114.22V155.071Z" fill="#263238"/>
<path d="M33.0044 187.265C32.8514 187.265 32.7393 180.113 32.7393 171.304C32.7393 162.495 32.8514 155.344 33.0044 155.344C33.1574 155.344 33.2696 162.485 33.2696 171.304C33.2696 180.124 33.1472 187.265 33.0044 187.265Z" fill="#455A64"/>
<path d="M44.8865 187.265C44.7437 187.265 44.6213 180.113 44.6213 171.304C44.6213 162.495 44.7437 155.344 44.8865 155.344C45.0293 155.344 45.1517 162.485 45.1517 171.304C45.1517 180.124 45.0293 187.265 44.8865 187.265Z" fill="#455A64"/>
<path d="M110.324 183.591C110.324 183.591 110.324 183.427 110.324 183.144C110.324 182.86 110.324 182.402 110.324 181.857C110.324 180.712 110.324 179.077 110.273 176.973C110.273 172.721 110.222 166.594 110.182 158.952L110.355 159.148L47.8749 159.236C47.6301 159.497 48.1911 158.898 48.1401 158.963V165.33C48.1401 167.445 48.1401 169.527 48.1401 171.588V183.58L47.8035 183.362L92.5064 183.492L105.541 183.569H109.049H109.967C110.073 183.56 110.178 183.56 110.284 183.569H110.018H109.131H105.684L92.7002 183.645L47.8239 183.776H47.5587V165.243C47.5587 164.152 47.5587 163.128 47.5587 162.059V158.876L47.8341 158.582L110.314 158.68H110.498V158.865C110.498 166.496 110.426 172.721 110.396 177.006C110.396 179.088 110.396 180.712 110.396 181.846C110.396 182.369 110.396 182.784 110.396 183.089C110.395 183.259 110.371 183.428 110.324 183.591Z" fill="#455A64"/>
<path d="M52.6685 183.591C52.5155 183.591 52.4033 178.074 52.4033 171.271C52.4033 164.469 52.5155 158.952 52.6685 158.952C52.8215 158.952 52.9337 164.469 52.9337 171.271C52.9337 178.074 52.8113 183.591 52.6685 183.591Z" fill="#455A64"/>
<path d="M58.5431 183.591C58.3901 183.591 58.278 178.074 58.278 171.271C58.278 164.469 58.3901 158.952 58.5431 158.952C58.6961 158.952 58.8083 164.469 58.8083 171.271C58.8083 178.074 58.6859 183.591 58.5431 183.591Z" fill="#455A64"/>
<path d="M64.4179 183.591C64.2751 183.591 64.1527 178.074 64.1527 171.271C64.1527 164.469 64.2751 158.952 64.4179 158.952C64.5607 158.952 64.6831 164.469 64.6831 171.271C64.6831 178.074 64.5607 183.591 64.4179 183.591Z" fill="#455A64"/>
<path d="M70.2925 183.591C70.1497 183.591 70.0273 178.074 70.0273 171.271C70.0273 164.469 70.1497 158.952 70.2925 158.952C70.4353 158.952 70.5577 164.469 70.5577 171.271C70.5577 178.074 70.4455 183.591 70.2925 183.591Z" fill="#455A64"/>
<path d="M76.1673 183.591C76.0245 183.591 75.9021 178.074 75.9021 171.271C75.9021 164.469 76.0245 158.952 76.1673 158.952C76.3101 158.952 76.4325 164.469 76.4325 171.271C76.4325 178.074 76.3611 183.591 76.1673 183.591Z" fill="#455A64"/>
<path d="M82.0522 183.591C81.8992 183.591 81.7769 178.074 81.7769 171.271C81.7769 164.469 81.8992 158.952 82.0522 158.952C82.2052 158.952 82.3174 164.469 82.3174 171.271C82.3174 178.074 82.195 183.591 82.0522 183.591Z" fill="#455A64"/>
<path d="M87.927 183.591C87.7741 183.591 87.6619 178.074 87.6619 171.271C87.6619 164.469 87.7741 158.952 87.927 158.952C88.08 158.952 88.1922 164.469 88.1922 171.271C88.1922 178.074 88.0698 183.591 87.927 183.591Z" fill="#455A64"/>
<path d="M93.8018 183.591C93.6488 183.591 93.5366 178.074 93.5366 171.271C93.5366 164.469 93.6488 158.952 93.8018 158.952C93.9548 158.952 94.067 164.469 94.067 171.271C94.067 178.074 93.9446 183.591 93.8018 183.591Z" fill="#455A64"/>
<path d="M99.6763 183.591C99.5335 183.591 99.4111 178.074 99.4111 171.271C99.4111 164.469 99.5335 158.952 99.6763 158.952C99.8191 158.952 99.9415 164.469 99.9415 171.271C99.9415 178.074 99.8191 183.591 99.6763 183.591Z" fill="#455A64"/>
<path d="M105.551 183.591C105.408 183.591 105.286 178.074 105.286 171.271C105.286 164.469 105.408 158.952 105.551 158.952C105.694 158.952 105.816 164.469 105.816 171.271C105.816 178.074 105.704 183.591 105.551 183.591Z" fill="#455A64"/>
<path d="M459.054 255.031H448.875V236.454H456.066L459.054 255.031Z" fill="#FF6D00"/>
<path d="M243.811 264.264H219.017V296.458H243.811V264.264Z" fill="#FF6D00"/>
<path opacity="0.4" d="M243.811 264.264H219.017V296.458H243.811V264.264Z" fill="white"/>
<path d="M313.155 264.264H243.821V296.458H313.155V264.264Z" fill="#FF6D00"/>
<path opacity="0.2" d="M313.155 264.264H243.821V296.458H313.155V264.264Z" fill="white"/>
<path d="M231.929 296.458C231.786 296.458 231.664 289.306 231.664 280.497C231.664 271.689 231.786 264.548 231.929 264.548C232.072 264.548 232.194 271.689 232.194 280.497C232.194 289.306 232.082 296.458 231.929 296.458Z" fill="#263238"/>
<path d="M309.259 292.784C309.251 292.635 309.251 292.486 309.259 292.337C309.259 292.021 309.259 291.596 309.259 291.061C309.259 289.917 309.259 288.27 309.259 286.166C309.259 281.915 309.198 275.788 309.157 268.157L309.341 268.342L246.861 268.44C246.616 268.691 247.177 268.091 247.116 268.157V280.792C247.116 284.913 247.116 288.925 247.116 292.784L246.861 292.511L291.563 292.631L304.608 292.708H308.117H309.035H309.351H309.065H308.178H304.731L291.737 292.784L246.861 292.915H246.606V292.642C246.606 288.783 246.606 284.771 246.606 280.65V268.157C246.544 268.211 247.116 267.611 246.881 267.873L309.361 267.96H309.545V268.157C309.545 275.788 309.463 282.002 309.443 286.286C309.443 288.369 309.443 289.993 309.443 291.127C309.443 291.661 309.443 292.064 309.443 292.37C309.392 292.513 309.331 292.651 309.259 292.784Z" fill="#263238"/>
<path d="M251.593 292.784C251.45 292.784 251.328 287.267 251.328 280.465C251.328 273.662 251.45 268.156 251.593 268.156C251.736 268.156 251.858 273.662 251.858 280.465C251.858 287.267 251.787 292.784 251.593 292.784Z" fill="#263238"/>
<path d="M257.478 292.784C257.325 292.784 257.202 287.267 257.202 280.465C257.202 273.662 257.325 268.156 257.478 268.156C257.631 268.156 257.743 273.662 257.743 280.465C257.743 287.267 257.621 292.784 257.478 292.784Z" fill="#263238"/>
<path d="M263.353 292.784C263.2 292.784 263.087 287.267 263.087 280.465C263.087 273.662 263.2 268.156 263.353 268.156C263.506 268.156 263.618 273.662 263.618 280.465C263.618 287.267 263.495 292.784 263.353 292.784Z" fill="#263238"/>
<path d="M269.227 292.784C269.074 292.784 268.962 287.267 268.962 280.465C268.962 273.662 269.074 268.156 269.227 268.156C269.38 268.156 269.492 273.662 269.492 280.465C269.492 287.267 269.37 292.784 269.227 292.784Z" fill="#263238"/>
<path d="M275.102 292.784C274.959 292.784 274.837 287.267 274.837 280.465C274.837 273.662 274.959 268.156 275.102 268.156C275.245 268.156 275.367 273.662 275.367 280.465C275.367 287.267 275.245 292.784 275.102 292.784Z" fill="#263238"/>
<path d="M280.977 292.784C280.834 292.784 280.712 287.267 280.712 280.465C280.712 273.662 280.834 268.156 280.977 268.156C281.12 268.156 281.242 273.662 281.242 280.465C281.242 287.267 281.13 292.784 280.977 292.784Z" fill="#263238"/>
<path d="M286.851 292.784C286.709 292.784 286.586 287.267 286.586 280.465C286.586 273.662 286.709 268.156 286.851 268.156C286.994 268.156 287.117 273.662 287.117 280.465C287.117 287.267 287.004 292.784 286.851 292.784Z" fill="#263238"/>
<path d="M292.736 292.784C292.583 292.784 292.471 287.267 292.471 280.465C292.471 273.662 292.583 268.156 292.736 268.156C292.889 268.156 293.002 273.662 293.002 280.465C293.002 287.267 292.879 292.784 292.736 292.784Z" fill="#263238"/>
<path d="M298.611 292.784C298.458 292.784 298.346 287.267 298.346 280.465C298.346 273.662 298.458 268.156 298.611 268.156C298.764 268.156 298.876 273.662 298.876 280.465C298.876 287.267 298.754 292.784 298.611 292.784Z" fill="#263238"/>
<path d="M304.486 292.784C304.343 292.784 304.221 287.267 304.221 280.465C304.221 273.662 304.343 268.156 304.486 268.156C304.629 268.156 304.751 273.662 304.751 280.465C304.751 287.267 304.629 292.784 304.486 292.784Z" fill="#263238"/>
<path d="M325.741 200.063H300.947V232.257H325.741V200.063Z" fill="#FF6D00"/>
<path opacity="0.4" d="M325.741 200.063H300.947V232.257H325.741V200.063Z" fill="white"/>
<path d="M395.075 200.063H325.741V232.257H395.075V200.063Z" fill="#FF6D00"/>
<path opacity="0.2" d="M395.075 200.063H325.741V232.257H395.075V200.063Z" fill="white"/>
<path d="M313.859 232.257C313.716 232.257 313.594 225.105 313.594 216.296C313.594 207.488 313.716 200.336 313.859 200.336C314.002 200.336 314.124 207.488 314.124 216.296C314.124 225.105 314.002 232.257 313.859 232.257Z" fill="#263238"/>
<path d="M391.189 228.583C391.175 228.434 391.175 228.284 391.189 228.136C391.189 227.819 391.189 227.394 391.189 226.849C391.189 225.759 391.189 224.069 391.189 221.965C391.189 217.713 391.128 211.587 391.087 203.955L391.271 204.141L328.78 204.239L329.045 203.955V216.58C329.045 220.701 329.045 224.712 329.045 228.572L328.79 228.299L373.493 228.419L386.538 228.495H390.047H390.954H391.281H390.985H390.108H386.65L373.667 228.572L328.79 228.703H328.535V228.43C328.535 224.571 328.535 220.559 328.535 216.438V203.966C328.474 204.021 329.035 203.421 328.801 203.672L391.291 203.77H391.464V203.966C391.464 211.597 391.393 217.812 391.372 222.096C391.372 224.178 391.372 225.803 391.321 226.936C391.321 227.46 391.321 227.874 391.321 228.179C391.321 228.484 391.189 228.583 391.189 228.583Z" fill="#263238"/>
<path d="M333.523 228.583C333.38 228.583 333.258 223.066 333.258 216.264C333.258 209.461 333.38 203.955 333.523 203.955C333.666 203.955 333.788 209.461 333.788 216.264C333.788 223.066 333.666 228.583 333.523 228.583Z" fill="#263238"/>
<path d="M339.398 228.583C339.255 228.583 339.132 223.066 339.132 216.264C339.132 209.461 339.255 203.955 339.398 203.955C339.54 203.955 339.663 209.461 339.663 216.264C339.663 223.066 339.5 228.583 339.398 228.583Z" fill="#263238"/>
<path d="M345.272 228.583C345.129 228.583 345.007 223.066 345.007 216.264C345.007 209.461 345.129 203.955 345.272 203.955C345.415 203.955 345.537 209.461 345.537 216.264C345.537 223.066 345.425 228.583 345.272 228.583Z" fill="#263238"/>
<path d="M351.147 228.583C351.004 228.583 350.882 223.066 350.882 216.264C350.882 209.461 351.004 203.955 351.147 203.955C351.29 203.955 351.422 209.461 351.422 216.264C351.422 223.066 351.3 228.583 351.147 228.583Z" fill="#263238"/>
<path d="M357.032 228.583C356.879 228.583 356.767 223.066 356.767 216.264C356.767 209.461 356.879 203.955 357.032 203.955C357.185 203.955 357.297 209.461 357.297 216.264C357.297 223.066 357.175 228.583 357.032 228.583Z" fill="#263238"/>
<path d="M362.958 228.583C362.805 228.583 362.692 223.066 362.692 216.264C362.692 209.461 362.805 203.955 362.958 203.955C363.111 203.955 363.223 209.461 363.223 216.264C363.223 223.066 363.049 228.583 362.958 228.583Z" fill="#263238"/>
<path d="M368.781 228.583C368.638 228.583 368.516 223.066 368.516 216.264C368.516 209.461 368.638 203.955 368.781 203.955C368.924 203.955 369.046 209.461 369.046 216.264C369.046 223.066 368.924 228.583 368.781 228.583Z" fill="#263238"/>
<path d="M374.656 228.583C374.513 228.583 374.391 223.066 374.391 216.264C374.391 209.461 374.513 203.955 374.656 203.955C374.799 203.955 374.921 209.461 374.921 216.264C374.921 223.066 374.809 228.583 374.656 228.583Z" fill="#263238"/>
<path d="M380.531 228.583C380.388 228.583 380.266 223.066 380.266 216.264C380.266 209.461 380.388 203.955 380.531 203.955C380.674 203.955 380.796 209.461 380.796 216.264C380.796 223.066 380.684 228.583 380.531 228.583Z" fill="#263238"/>
<path d="M386.416 228.583C386.263 228.583 386.14 223.066 386.14 216.264C386.14 209.461 386.263 203.955 386.416 203.955C386.569 203.955 386.681 209.461 386.681 216.264C386.681 223.066 386.559 228.583 386.416 228.583Z" fill="#263238"/>
<path d="M112.283 280.552H87.4884V312.745H112.283V280.552Z" fill="#FF6D00"/>
<path opacity="0.4" d="M112.283 280.552H87.4884V312.745H112.283V280.552Z" fill="white"/>
<path d="M181.616 280.552H112.283V312.745H181.616V280.552Z" fill="#FF6D00"/>
<path opacity="0.2" d="M181.616 280.552H112.283V312.745H181.616V280.552Z" fill="white"/>
<path d="M100.401 312.745C100.258 312.745 100.135 305.604 100.135 296.785C100.135 287.965 100.258 280.835 100.401 280.835C100.543 280.835 100.666 287.976 100.666 296.785C100.666 305.594 100.543 312.745 100.401 312.745Z" fill="#263238"/>
<path d="M177.731 309.071C177.716 308.923 177.716 308.773 177.731 308.624C177.731 308.308 177.731 307.883 177.731 307.349C177.731 306.204 177.731 304.558 177.731 302.454C177.731 298.202 177.67 292.075 177.629 284.444L177.812 284.629L115.322 284.727L115.587 284.444V297.079C115.587 301.2 115.587 305.212 115.587 309.071L115.332 308.799L160.035 308.929L173.08 309.006H176.588H177.496H177.823H177.527H176.65H173.192L160.209 309.082L115.332 309.213H115.077V308.94C115.077 305.081 115.077 301.069 115.077 296.948V284.444C115.016 284.444 115.577 283.899 115.343 284.16L177.833 284.248H178.006V284.444C178.006 292.075 177.935 298.289 177.914 302.574C177.914 304.656 177.914 306.28 177.863 307.414C177.863 307.948 177.863 308.352 177.863 308.657C177.863 308.962 177.731 309.071 177.731 309.071Z" fill="#263238"/>
<path d="M120.065 309.071C119.912 309.071 119.8 303.555 119.8 296.752C119.8 289.949 119.912 284.444 120.065 284.444C120.218 284.444 120.33 289.895 120.33 296.752C120.33 303.609 120.218 309.071 120.065 309.071Z" fill="#263238"/>
<path d="M125.939 309.071C125.796 309.071 125.674 303.555 125.674 296.752C125.674 289.949 125.796 284.444 125.939 284.444C126.082 284.444 126.204 289.895 126.204 296.752C126.204 303.609 126.082 309.071 125.939 309.071Z" fill="#263238"/>
<path d="M131.814 309.071C131.671 309.071 131.549 303.555 131.549 296.752C131.549 289.949 131.671 284.444 131.814 284.444C131.957 284.444 132.079 289.895 132.079 296.752C132.079 303.609 131.967 309.071 131.814 309.071Z" fill="#263238"/>
<path d="M137.689 309.071C137.546 309.071 137.424 303.555 137.424 296.752C137.424 289.949 137.546 284.444 137.689 284.444C137.832 284.444 137.954 289.895 137.954 296.752C137.954 303.609 137.842 309.071 137.689 309.071Z" fill="#263238"/>
<path d="M143.574 309.071C143.421 309.071 143.308 303.555 143.308 296.752C143.308 289.949 143.421 284.444 143.574 284.444C143.727 284.444 143.839 289.895 143.839 296.752C143.839 303.609 143.676 309.071 143.574 309.071Z" fill="#263238"/>
<path d="M149.448 309.071C149.295 309.071 149.183 303.555 149.183 296.752C149.183 289.949 149.295 284.444 149.448 284.444C149.601 284.444 149.713 289.895 149.713 296.752C149.713 303.609 149.591 309.071 149.448 309.071Z" fill="#263238"/>
<path d="M155.323 309.071C155.18 309.071 155.058 303.555 155.058 296.752C155.058 289.949 155.18 284.444 155.323 284.444C155.466 284.444 155.588 289.895 155.588 296.752C155.588 303.609 155.466 309.071 155.323 309.071Z" fill="#263238"/>
<path d="M161.198 309.071C161.055 309.071 160.933 303.555 160.933 296.752C160.933 289.949 161.055 284.444 161.198 284.444C161.341 284.444 161.463 289.895 161.463 296.752C161.463 303.609 161.341 309.071 161.198 309.071Z" fill="#263238"/>
<path d="M167.073 309.071C166.93 309.071 166.807 303.555 166.807 296.752C166.807 289.949 166.93 284.444 167.073 284.444C167.215 284.444 167.338 289.895 167.338 296.752C167.338 303.609 167.226 309.071 167.073 309.071Z" fill="#263238"/>
<path d="M172.947 309.071C172.804 309.071 172.682 303.555 172.682 296.752C172.682 289.949 172.804 284.444 172.947 284.444C173.09 284.444 173.212 289.895 173.212 296.752C173.212 303.609 173.1 309.071 172.947 309.071Z" fill="#263238"/>
<path d="M272.144 232.431H247.35V264.624H272.144V232.431Z" fill="#263238"/>
<path d="M341.488 232.431H272.154V264.624H341.488V232.431Z" fill="#263238"/>
<path d="M260.262 264.613C260.119 264.613 259.997 257.473 259.997 248.664C259.997 239.855 260.119 232.704 260.262 232.704C260.405 232.704 260.527 239.844 260.527 248.664C260.527 257.484 260.415 264.613 260.262 264.613Z" fill="#455A64"/>
<path d="M272.185 264.613C272.032 264.613 271.92 257.473 271.92 248.664C271.92 239.855 272.032 232.704 272.185 232.704C272.338 232.704 272.45 239.844 272.45 248.664C272.45 257.484 272.297 264.613 272.185 264.613Z" fill="#455A64"/>
<path d="M337.592 260.939C337.583 260.791 337.583 260.641 337.592 260.492C337.592 260.176 337.592 259.762 337.592 259.217C337.592 258.072 337.592 256.437 337.592 254.322C337.592 250.07 337.531 243.943 337.49 236.312L337.674 236.508L275.194 236.596C274.949 236.846 275.51 236.247 275.449 236.312V248.926C275.449 253.047 275.449 257.058 275.449 260.918L275.194 260.645L319.897 260.776L332.941 260.852H336.45H337.358H337.684H337.398H336.44H332.982L319.999 260.929L275.122 261.049H274.867V260.776C274.867 256.917 274.867 252.905 274.867 248.784V236.334L275.143 236.05L337.623 236.138H337.806V236.334C337.806 244.02 337.725 250.19 337.704 254.464C337.704 256.557 337.704 258.181 337.704 259.315C337.704 259.838 337.704 260.253 337.704 260.558C337.676 260.688 337.639 260.816 337.592 260.939Z" fill="#455A64"/>
<path d="M279.926 260.939C279.783 260.939 279.661 255.423 279.661 248.631C279.661 241.839 279.783 236.312 279.926 236.312C280.069 236.312 280.191 241.828 280.191 248.631C280.191 255.434 280.079 260.939 279.926 260.939Z" fill="#455A64"/>
<path d="M285.801 260.939C285.658 260.939 285.536 255.423 285.536 248.631C285.536 241.839 285.658 236.312 285.801 236.312C285.944 236.312 286.066 241.828 286.066 248.631C286.066 255.434 285.954 260.939 285.801 260.939Z" fill="#455A64"/>
<path d="M291.686 260.939C291.533 260.939 291.421 255.423 291.421 248.631C291.421 241.839 291.533 236.312 291.686 236.312C291.839 236.312 291.951 241.828 291.951 248.631C291.951 255.434 291.829 260.939 291.686 260.939Z" fill="#455A64"/>
<path d="M297.561 260.939C297.408 260.939 297.295 255.423 297.295 248.631C297.295 241.839 297.408 236.312 297.561 236.312C297.714 236.312 297.826 241.828 297.826 248.631C297.826 255.434 297.683 260.939 297.561 260.939Z" fill="#455A64"/>
<path d="M303.435 260.939C303.293 260.939 303.17 255.423 303.17 248.631C303.17 241.839 303.293 236.312 303.435 236.312C303.578 236.312 303.701 241.828 303.701 248.631C303.701 255.434 303.578 260.939 303.435 260.939Z" fill="#455A64"/>
<path d="M309.31 260.939C309.167 260.939 309.045 255.423 309.045 248.631C309.045 241.839 309.167 236.312 309.31 236.312C309.453 236.312 309.575 241.828 309.575 248.631C309.575 255.434 309.463 260.939 309.31 260.939Z" fill="#455A64"/>
<path d="M315.185 260.939C315.042 260.939 314.92 255.423 314.92 248.631C314.92 241.839 315.042 236.312 315.185 236.312C315.328 236.312 315.45 241.828 315.45 248.631C315.45 255.434 315.338 260.939 315.185 260.939Z" fill="#455A64"/>
<path d="M321.059 260.939C320.917 260.939 320.794 255.423 320.794 248.631C320.794 241.839 320.917 236.312 321.059 236.312C321.202 236.312 321.335 241.828 321.335 248.631C321.335 255.434 321.212 260.939 321.059 260.939Z" fill="#455A64"/>
<path d="M326.944 260.939C326.791 260.939 326.679 255.423 326.679 248.631C326.679 241.839 326.791 236.312 326.944 236.312C327.097 236.312 327.21 241.828 327.21 248.631C327.21 255.434 327.087 260.939 326.944 260.939Z" fill="#455A64"/>
<path d="M332.819 260.939C332.666 260.939 332.554 255.423 332.554 248.631C332.554 241.839 332.666 236.312 332.819 236.312C332.972 236.312 333.084 241.828 333.084 248.631C333.084 255.434 332.962 260.939 332.819 260.939Z" fill="#455A64"/>
<path d="M212.163 297.493H187.369V329.687H212.163V297.493Z" fill="#FF6D00"/>
<path d="M281.507 297.493H212.173V329.687H281.507V297.493Z" fill="#FF6D00"/>
<path opacity="0.4" d="M281.507 297.493H212.173V329.687H281.507V297.493Z" fill="black"/>
<path d="M200.291 329.687C200.138 329.687 200.026 322.546 200.026 313.726C200.026 304.907 200.138 297.777 200.291 297.777C200.444 297.777 200.556 304.918 200.556 313.726C200.556 322.535 200.434 329.687 200.291 329.687Z" fill="#263238"/>
<path d="M277.611 326.013C277.611 326.013 277.611 325.849 277.611 325.566C277.611 325.282 277.611 324.824 277.611 324.29C277.611 323.2 277.611 321.499 277.56 319.395C277.56 315.144 277.509 309.017 277.468 301.385L277.642 301.571L215.162 301.669L215.427 301.385V304.591C215.427 305.681 215.427 306.716 215.427 307.763V326.013L215.172 325.74L259.875 325.871L272.909 325.947H276.418H277.336C277.441 325.938 277.547 325.938 277.652 325.947H277.285H276.397H272.95L259.966 326.024L215.09 326.154H214.825V307.621C214.825 306.531 214.825 305.506 214.825 304.449V301.244C214.774 301.298 215.335 300.699 215.1 300.96L277.58 301.047H277.764V301.244C277.764 308.875 277.693 315.089 277.662 319.373C277.662 321.456 277.662 323.08 277.662 324.214C277.662 324.748 277.662 325.151 277.662 325.457C277.675 325.644 277.657 325.832 277.611 326.013Z" fill="#263238"/>
<path d="M219.955 326.013C219.802 326.013 219.69 320.496 219.69 313.694C219.69 306.891 219.802 301.385 219.955 301.385C220.108 301.385 220.22 306.891 220.22 313.694C220.22 320.496 220.098 326.013 219.955 326.013Z" fill="#263238"/>
<path d="M225.83 326.013C225.677 326.013 225.565 320.496 225.565 313.694C225.565 306.891 225.677 301.385 225.83 301.385C225.983 301.385 226.095 306.891 226.095 313.694C226.095 320.496 225.973 326.013 225.83 326.013Z" fill="#263238"/>
<path d="M231.705 326.013C231.562 326.013 231.439 320.496 231.439 313.694C231.439 306.891 231.562 301.385 231.705 301.385C231.847 301.385 231.97 306.891 231.97 313.694C231.97 320.496 231.847 326.013 231.705 326.013Z" fill="#263238"/>
<path d="M237.579 326.013C237.437 326.013 237.314 320.496 237.314 313.694C237.314 306.891 237.437 301.385 237.579 301.385C237.722 301.385 237.845 306.891 237.845 313.694C237.845 320.496 237.732 326.013 237.579 326.013Z" fill="#263238"/>
<path d="M243.454 326.013C243.311 326.013 243.189 320.496 243.189 313.694C243.189 306.891 243.311 301.385 243.454 301.385C243.597 301.385 243.719 306.891 243.719 313.694C243.719 320.496 243.627 326.013 243.454 326.013Z" fill="#263238"/>
<path d="M249.329 326.013C249.186 326.013 249.064 320.496 249.064 313.694C249.064 306.891 249.186 301.385 249.329 301.385C249.472 301.385 249.604 306.891 249.604 313.694C249.604 320.496 249.482 326.013 249.329 326.013Z" fill="#263238"/>
<path d="M255.214 326.013C255.061 326.013 254.948 320.496 254.948 313.694C254.948 306.891 255.061 301.385 255.214 301.385C255.367 301.385 255.479 306.891 255.479 313.694C255.479 320.496 255.356 326.013 255.214 326.013Z" fill="#263238"/>
<path d="M261.088 326.013C260.935 326.013 260.823 320.496 260.823 313.694C260.823 306.891 260.935 301.385 261.088 301.385C261.241 301.385 261.354 306.891 261.354 313.694C261.354 320.496 261.231 326.013 261.088 326.013Z" fill="#263238"/>
<path d="M266.963 326.013C266.82 326.013 266.698 320.496 266.698 313.694C266.698 306.891 266.82 301.385 266.963 301.385C267.106 301.385 267.228 306.891 267.228 313.694C267.228 320.496 267.086 326.013 266.963 326.013Z" fill="#263238"/>
<path d="M272.838 326.013C272.695 326.013 272.573 320.496 272.573 313.694C272.573 306.891 272.695 301.385 272.838 301.385C272.981 301.385 273.103 306.891 273.103 313.694C273.103 320.496 272.991 326.013 272.838 326.013Z" fill="#263238"/>
<path d="M291.41 296.447H266.616V328.64H291.41V296.447Z" fill="#263238"/>
<path d="M360.744 296.447H291.41V328.64H360.744V296.447Z" fill="#263238"/>
<path d="M279.528 328.64C279.376 328.64 279.263 321.488 279.263 312.68C279.263 303.871 279.376 296.719 279.528 296.719C279.681 296.719 279.794 303.86 279.794 312.68C279.794 321.499 279.671 328.64 279.528 328.64Z" fill="#455A64"/>
<path d="M291.41 328.64C291.268 328.64 291.145 321.488 291.145 312.68C291.145 303.871 291.268 296.719 291.41 296.719C291.553 296.719 291.676 303.86 291.676 312.68C291.676 321.499 291.563 328.64 291.41 328.64Z" fill="#455A64"/>
<path d="M356.838 324.966C356.838 324.966 356.838 324.803 356.838 324.519C356.838 324.236 356.838 323.778 356.838 323.233C356.838 322.088 356.838 320.453 356.787 318.349C356.787 314.097 356.736 307.97 356.695 300.328L356.869 300.524L294.389 300.622L294.654 300.339V306.705C294.654 308.82 294.654 310.903 294.654 312.963V324.955L294.399 324.683L339.102 324.803L352.136 324.879H355.645H356.563H356.879H356.593H355.706H352.259L339.275 324.955L294.399 325.086H294.144V300.35C294.083 300.404 294.644 299.805 294.409 300.055L356.889 300.153H357.073V300.339C357.073 307.97 357.001 314.195 356.971 318.479C356.971 320.562 356.971 322.186 356.971 323.32C356.971 323.843 356.971 324.257 356.971 324.563C356.942 324.702 356.898 324.838 356.838 324.966Z" fill="#455A64"/>
<path d="M299.192 324.966C299.04 324.966 298.927 319.45 298.927 312.647C298.927 305.844 299.04 300.328 299.192 300.328C299.345 300.328 299.458 305.844 299.458 312.647C299.458 319.45 299.335 324.966 299.192 324.966Z" fill="#455A64"/>
<path d="M305.067 324.966C304.914 324.966 304.802 319.45 304.802 312.647C304.802 305.844 304.914 300.328 305.067 300.328C305.22 300.328 305.332 305.844 305.332 312.647C305.332 319.45 305.21 324.966 305.067 324.966Z" fill="#455A64"/>
<path d="M310.942 324.966C310.799 324.966 310.677 319.45 310.677 312.647C310.677 305.844 310.799 300.328 310.942 300.328C311.085 300.328 311.207 305.844 311.207 312.647C311.207 319.45 311.085 324.966 310.942 324.966Z" fill="#455A64"/>
<path d="M316.817 324.966C316.674 324.966 316.551 319.45 316.551 312.647C316.551 305.844 316.674 300.328 316.817 300.328C316.959 300.328 317.082 305.844 317.082 312.647C317.082 319.45 316.97 324.966 316.817 324.966Z" fill="#455A64"/>
<path d="M322.691 324.966C322.549 324.966 322.426 319.45 322.426 312.647C322.426 305.844 322.549 300.328 322.691 300.328C322.834 300.328 322.956 305.844 322.956 312.647C322.956 319.45 322.844 324.966 322.691 324.966Z" fill="#455A64"/>
<path d="M328.576 324.966C328.423 324.966 328.311 319.45 328.311 312.647C328.311 305.844 328.423 300.328 328.576 300.328C328.729 300.328 328.841 305.844 328.841 312.647C328.841 319.45 328.719 324.966 328.576 324.966Z" fill="#455A64"/>
<path d="M334.451 324.966C334.298 324.966 334.186 319.45 334.186 312.647C334.186 305.844 334.298 300.328 334.451 300.328C334.604 300.328 334.716 305.844 334.716 312.647C334.716 319.45 334.594 324.966 334.451 324.966Z" fill="#455A64"/>
<path d="M340.326 324.966C340.183 324.966 340.061 319.45 340.061 312.647C340.061 305.844 340.183 300.328 340.326 300.328C340.469 300.328 340.591 305.844 340.591 312.647C340.591 319.45 340.52 324.966 340.326 324.966Z" fill="#455A64"/>
<path d="M346.2 324.966C346.058 324.966 345.935 319.45 345.935 312.647C345.935 305.844 346.058 300.328 346.2 300.328C346.343 300.328 346.466 305.844 346.466 312.647C346.466 319.45 346.343 324.966 346.2 324.966Z" fill="#455A64"/>
<path d="M352.075 324.966C351.932 324.966 351.81 319.45 351.81 312.647C351.81 305.844 351.932 300.328 352.075 300.328C352.218 300.328 352.34 305.844 352.34 312.647C352.34 319.45 352.228 324.966 352.075 324.966Z" fill="#455A64"/>
<path d="M310.901 232.562H286.107V264.755H310.901V232.562Z" fill="#455A64"/>
<path d="M380.235 232.562H310.901V264.755H380.235V232.562Z" fill="#455A64"/>
<path d="M299.019 264.755C298.876 264.755 298.754 257.603 298.754 248.795C298.754 239.986 298.876 232.834 299.019 232.834C299.162 232.834 299.284 239.986 299.284 248.795C299.284 257.603 299.172 264.755 299.019 264.755Z" fill="#263238"/>
<path d="M310.942 264.755C310.799 264.755 310.677 257.603 310.677 248.795C310.677 239.986 310.799 232.834 310.942 232.834C311.085 232.834 311.207 239.986 311.207 248.795C311.207 257.603 311.054 264.755 310.942 264.755Z" fill="#263238"/>
<path d="M376.349 261.081C376.341 260.932 376.341 260.783 376.349 260.634C376.349 260.318 376.349 259.893 376.349 259.348C376.349 258.258 376.349 256.568 376.349 254.464C376.349 250.212 376.288 244.085 376.247 236.454L376.431 236.639L313.94 236.737L314.206 236.454V249.089C314.206 253.21 314.206 257.222 314.206 261.081L313.951 260.809L358.654 260.929L371.698 261.005H375.207H376.115H376.441H376.145H375.268H371.81L358.827 261.081L313.951 261.212H313.696V260.939C313.696 257.08 313.696 253.068 313.696 248.947V236.454L313.961 236.17L376.451 236.258H376.635V236.454C376.584 244.085 376.553 250.299 376.533 254.584C376.533 256.666 376.533 258.29 376.533 259.424C376.533 259.958 376.533 260.362 376.533 260.667C376.533 260.972 376.349 261.081 376.349 261.081Z" fill="#263238"/>
<path d="M318.683 261.081C318.54 261.081 318.418 255.565 318.418 248.762C318.418 241.959 318.54 236.454 318.683 236.454C318.826 236.454 318.948 241.959 318.948 248.762C318.948 255.565 318.826 261.081 318.683 261.081Z" fill="#263238"/>
<path d="M324.558 261.081C324.415 261.081 324.293 255.565 324.293 248.762C324.293 241.959 324.415 236.454 324.558 236.454C324.701 236.454 324.823 241.959 324.823 248.762C324.823 255.565 324.711 261.081 324.558 261.081Z" fill="#263238"/>
<path d="M330.433 261.081C330.29 261.081 330.167 255.565 330.167 248.762C330.167 241.959 330.29 236.454 330.433 236.454C330.575 236.454 330.698 241.959 330.698 248.762C330.698 255.565 330.586 261.081 330.433 261.081Z" fill="#263238"/>
<path d="M336.317 261.081C336.164 261.081 336.052 255.565 336.052 248.762C336.052 241.959 336.164 236.454 336.317 236.454C336.47 236.454 336.583 241.959 336.583 248.762C336.583 255.565 336.44 261.081 336.317 261.081Z" fill="#263238"/>
<path d="M342.192 261.081C342.039 261.081 341.927 255.565 341.927 248.762C341.927 241.959 342.039 236.454 342.192 236.454C342.345 236.454 342.457 241.959 342.457 248.762C342.457 255.565 342.335 261.081 342.192 261.081Z" fill="#263238"/>
<path d="M348.067 261.081C347.924 261.081 347.802 255.565 347.802 248.762C347.802 241.959 347.924 236.454 348.067 236.454C348.21 236.454 348.332 241.959 348.332 248.762C348.332 255.565 348.21 261.081 348.067 261.081Z" fill="#263238"/>
<path d="M353.941 261.081C353.799 261.081 353.676 255.565 353.676 248.762C353.676 241.959 353.799 236.454 353.941 236.454C354.084 236.454 354.207 241.959 354.207 248.762C354.207 255.565 354.094 261.081 353.941 261.081Z" fill="#263238"/>
<path d="M359.816 261.081C359.673 261.081 359.551 255.565 359.551 248.762C359.551 241.959 359.673 236.454 359.816 236.454C359.959 236.454 360.081 241.959 360.081 248.762C360.081 255.565 359.969 261.081 359.816 261.081Z" fill="#263238"/>
<path d="M365.701 261.081C365.548 261.081 365.426 255.565 365.426 248.762C365.426 241.959 365.548 236.454 365.701 236.454C365.854 236.454 365.966 241.959 365.966 248.762C365.966 255.565 365.844 261.081 365.701 261.081Z" fill="#263238"/>
<path d="M371.576 261.081C371.423 261.081 371.311 255.565 371.311 248.762C371.311 241.959 371.423 236.454 371.576 236.454C371.729 236.454 371.841 241.959 371.841 248.762C371.841 255.565 371.719 261.081 371.576 261.081Z" fill="#263238"/>
<path d="M273.786 264.264H248.992V296.458H273.786V264.264Z" fill="#FF6D00"/>
<path d="M343.13 264.264H273.796V296.458H343.13V264.264Z" fill="#FF6D00"/>
<path opacity="0.4" d="M343.13 264.264H273.796V296.458H343.13V264.264Z" fill="black"/>
<path d="M261.904 296.458C261.761 296.458 261.639 289.306 261.639 280.497C261.639 271.689 261.761 264.548 261.904 264.548C262.047 264.548 262.18 271.689 262.18 280.497C262.18 289.306 262.057 296.458 261.904 296.458Z" fill="#263238"/>
<path d="M339.234 292.784C339.234 292.784 339.234 292.62 339.234 292.337C339.234 292.053 339.234 291.596 339.234 291.061C339.234 289.917 339.234 288.27 339.234 286.166C339.234 281.915 339.173 275.788 339.132 268.157L339.316 268.342L276.836 268.44C276.591 268.691 277.152 268.091 277.091 268.157V280.792C277.091 284.913 277.091 288.925 277.091 292.784L276.836 292.511L321.539 292.631L334.583 292.708H338.092H339.01H339.326H339.041H338.153H334.706L321.712 292.784L276.836 292.915H276.581V280.792C276.581 278.731 276.581 276.649 276.581 274.534V268.157C276.581 268.211 277.091 267.611 276.856 267.873L339.336 267.96H339.52V268.157C339.52 275.788 339.438 282.002 339.418 286.286C339.418 288.369 339.418 289.993 339.418 291.127C339.418 291.661 339.418 292.064 339.418 292.37C339.367 292.513 339.306 292.651 339.234 292.784Z" fill="#263238"/>
<path d="M281.568 292.784C281.426 292.784 281.303 287.267 281.303 280.465C281.303 273.662 281.426 268.156 281.568 268.156C281.711 268.156 281.833 273.662 281.833 280.465C281.833 287.267 281.721 292.784 281.568 292.784Z" fill="#263238"/>
<path d="M287.484 292.784C287.331 292.784 287.219 287.267 287.219 280.465C287.219 273.662 287.331 268.156 287.484 268.156C287.637 268.156 287.749 273.662 287.749 280.465C287.749 287.267 287.596 292.784 287.484 292.784Z" fill="#263238"/>
<path d="M293.328 292.784C293.175 292.784 293.063 287.267 293.063 280.465C293.063 273.662 293.175 268.156 293.328 268.156C293.481 268.156 293.593 273.662 293.593 280.465C293.593 287.267 293.471 292.784 293.328 292.784Z" fill="#263238"/>
<path d="M299.203 292.784C299.06 292.784 298.937 287.267 298.937 280.465C298.937 273.662 299.06 268.156 299.203 268.156C299.345 268.156 299.468 273.662 299.468 280.465C299.468 287.267 299.345 292.784 299.203 292.784Z" fill="#263238"/>
<path d="M305.077 292.784C304.935 292.784 304.812 287.267 304.812 280.465C304.812 273.662 304.935 268.156 305.077 268.156C305.22 268.156 305.343 273.662 305.343 280.465C305.343 287.267 305.22 292.784 305.077 292.784Z" fill="#263238"/>
<path d="M310.942 292.784C310.799 292.784 310.677 287.267 310.677 280.465C310.677 273.662 310.799 268.156 310.942 268.156C311.085 268.156 311.207 273.662 311.207 280.465C311.207 287.267 311.105 292.784 310.942 292.784Z" fill="#263238"/>
<path d="M316.827 292.784C316.684 292.784 316.562 287.267 316.562 280.465C316.562 273.662 316.684 268.156 316.827 268.156C316.969 268.156 317.102 273.662 317.102 280.465C317.102 287.267 316.98 292.784 316.827 292.784Z" fill="#263238"/>
<path d="M322.712 292.784C322.559 292.784 322.447 287.267 322.447 280.465C322.447 273.662 322.559 268.156 322.712 268.156C322.865 268.156 322.977 273.662 322.977 280.465C322.977 287.267 322.855 292.784 322.712 292.784Z" fill="#263238"/>
<path d="M328.586 292.784C328.433 292.784 328.321 287.267 328.321 280.465C328.321 273.662 328.433 268.156 328.586 268.156C328.739 268.156 328.852 273.662 328.852 280.465C328.852 287.267 328.729 292.784 328.586 292.784Z" fill="#263238"/>
<path d="M334.461 292.784C334.318 292.784 334.196 287.267 334.196 280.465C334.196 273.662 334.318 268.156 334.461 268.156C334.604 268.156 334.726 273.662 334.726 280.465C334.726 287.267 334.604 292.784 334.461 292.784Z" fill="#263238"/>
<path d="M343.477 264.134H318.683V296.327H343.477V264.134Z" fill="#455A64"/>
<path d="M412.811 264.134H343.477V296.327H412.811V264.134Z" fill="#455A64"/>
<path d="M331.595 296.316C331.452 296.316 331.33 289.175 331.33 280.367C331.33 271.558 331.452 264.406 331.595 264.406C331.738 264.406 331.86 271.547 331.86 280.367C331.86 289.186 331.738 296.316 331.595 296.316Z" fill="#263238"/>
<path d="M343.477 296.316C343.334 296.316 343.212 289.175 343.212 280.367C343.212 271.558 343.334 264.406 343.477 264.406C343.62 264.406 343.742 271.547 343.742 280.367C343.742 289.186 343.63 296.316 343.477 296.316Z" fill="#263238"/>
<path d="M408.925 292.642C408.91 292.493 408.91 292.344 408.925 292.195C408.925 291.879 408.925 291.465 408.925 290.92C408.925 289.775 408.925 288.14 408.925 286.035C408.925 281.773 408.864 275.646 408.823 268.015L409.007 268.211L346.516 268.298L346.782 268.015V280.639C346.782 284.749 346.782 288.761 346.782 292.631L346.527 292.359L391.23 292.489L404.274 292.566H407.783H408.691H409.017H408.721H407.844H404.387L391.403 292.642L346.527 292.762H346.272V292.489C346.272 288.63 346.272 284.618 346.272 280.497V268.037L346.537 267.753L409.027 267.84H409.201V268.037C409.201 275.722 409.129 281.893 409.109 286.166C409.109 288.259 409.109 289.884 409.109 291.018C409.109 291.541 409.109 291.955 409.109 292.26C409.109 292.566 408.925 292.653 408.925 292.642Z" fill="#263238"/>
<path d="M351.259 292.642C351.116 292.642 350.994 287.126 350.994 280.334C350.994 273.542 351.116 268.015 351.259 268.015C351.402 268.015 351.524 273.531 351.524 280.334C351.524 287.137 351.402 292.642 351.259 292.642Z" fill="#263238"/>
<path d="M357.134 292.642C356.991 292.642 356.869 287.126 356.869 280.334C356.869 273.542 356.991 268.015 357.134 268.015C357.277 268.015 357.399 273.531 357.399 280.334C357.399 287.137 357.277 292.642 357.134 292.642Z" fill="#263238"/>
<path d="M363.009 292.642C362.866 292.642 362.743 287.126 362.743 280.334C362.743 273.542 362.866 268.015 363.009 268.015C363.151 268.015 363.274 273.531 363.274 280.334C363.274 287.137 363.162 292.642 363.009 292.642Z" fill="#263238"/>
<path d="M368.883 292.642C368.74 292.642 368.618 287.126 368.618 280.334C368.618 273.542 368.74 268.015 368.883 268.015C369.026 268.015 369.148 273.531 369.148 280.334C369.148 287.137 369.077 292.642 368.883 292.642Z" fill="#263238"/>
<path d="M374.768 292.642C374.615 292.642 374.503 287.126 374.503 280.334C374.503 273.542 374.615 268.015 374.768 268.015C374.921 268.015 375.033 273.531 375.033 280.334C375.033 287.137 374.911 292.642 374.768 292.642Z" fill="#263238"/>
<path d="M380.643 292.642C380.49 292.642 380.378 287.126 380.378 280.334C380.378 273.542 380.49 268.015 380.643 268.015C380.796 268.015 380.908 273.531 380.908 280.334C380.908 287.137 380.786 292.642 380.643 292.642Z" fill="#263238"/>
<path d="M386.518 292.642C386.375 292.642 386.252 287.126 386.252 280.334C386.252 273.542 386.375 268.015 386.518 268.015C386.66 268.015 386.783 273.531 386.783 280.334C386.783 287.137 386.66 292.642 386.518 292.642Z" fill="#263238"/>
<path d="M392.392 292.642C392.25 292.642 392.127 287.126 392.127 280.334C392.127 273.542 392.25 268.015 392.392 268.015C392.535 268.015 392.658 273.531 392.658 280.334C392.658 287.137 392.535 292.642 392.392 292.642Z" fill="#263238"/>
<path d="M398.267 292.642C398.124 292.642 398.002 287.126 398.002 280.334C398.002 273.542 398.124 268.015 398.267 268.015C398.41 268.015 398.532 273.531 398.532 280.334C398.532 287.137 398.42 292.642 398.267 292.642Z" fill="#263238"/>
<path d="M404.142 292.642C403.999 292.642 403.877 287.126 403.877 280.334C403.877 273.542 403.999 268.015 404.142 268.015C404.285 268.015 404.417 273.531 404.417 280.334C404.417 287.137 404.295 292.642 404.142 292.642Z" fill="#263238"/>
<path d="M124.675 215.424H99.8804V247.617H124.675V215.424Z" fill="#455A64"/>
<path d="M194.019 215.424H124.685V247.617H194.019V215.424Z" fill="#455A64"/>
<path d="M112.803 247.606C112.65 247.606 112.538 240.466 112.538 231.657C112.538 222.848 112.65 215.697 112.803 215.697C112.956 215.697 113.068 222.837 113.068 231.657C113.068 240.477 112.946 247.606 112.803 247.606Z" fill="#263238"/>
<path d="M124.685 247.606C124.542 247.606 124.42 240.466 124.42 231.657C124.42 222.848 124.542 215.697 124.685 215.697C124.828 215.697 124.95 222.837 124.95 231.657C124.95 240.477 124.828 247.606 124.685 247.606Z" fill="#263238"/>
<path d="M190.123 243.932C190.123 243.932 190.123 243.78 190.123 243.485C190.123 243.191 190.123 242.755 190.123 242.21C190.123 241.065 190.123 239.43 190.123 237.326C190.123 233.074 190.072 226.936 190.031 219.305L190.204 219.501L127.724 219.589L127.989 219.305V222.488C127.989 223.579 127.989 224.614 127.989 225.672V243.911L127.734 243.638L172.437 243.769L185.472 243.845H188.98H189.898H190.214C190.119 243.856 190.024 243.856 189.929 243.845H189.041H185.594L172.611 243.922L127.734 244.041H127.357V225.508C127.357 224.418 127.357 223.393 127.357 222.325V219.338C127.357 219.403 127.867 218.804 127.632 219.054L190.112 219.152H190.296V219.338C190.296 226.969 190.225 233.194 190.194 237.468C190.194 239.561 190.194 241.185 190.194 242.319C190.194 242.842 190.194 243.257 190.194 243.562C190.185 243.688 190.161 243.813 190.123 243.932Z" fill="#263238"/>
<path d="M132.457 243.932C132.304 243.932 132.191 238.427 132.191 231.624C132.191 224.821 132.304 219.305 132.457 219.305C132.61 219.305 132.722 224.821 132.722 231.624C132.722 238.427 132.61 243.932 132.457 243.932Z" fill="#263238"/>
<path d="M138.341 243.932C138.188 243.932 138.076 238.427 138.076 231.624C138.076 224.821 138.188 219.305 138.341 219.305C138.494 219.305 138.607 224.821 138.607 231.624C138.607 238.427 138.484 243.932 138.341 243.932Z" fill="#263238"/>
<path d="M144.216 243.932C144.073 243.932 143.951 238.427 143.951 231.624C143.951 224.821 144.073 219.305 144.216 219.305C144.359 219.305 144.481 224.821 144.481 231.624C144.481 238.427 144.359 243.932 144.216 243.932Z" fill="#263238"/>
<path d="M150.091 243.932C149.948 243.932 149.826 238.427 149.826 231.624C149.826 224.821 149.948 219.305 150.091 219.305C150.234 219.305 150.356 224.821 150.356 231.624C150.356 238.427 150.244 243.932 150.091 243.932Z" fill="#263238"/>
<path d="M155.966 243.932C155.823 243.932 155.7 238.427 155.7 231.624C155.7 224.821 155.823 219.305 155.966 219.305C156.108 219.305 156.231 224.821 156.231 231.624C156.231 238.427 156.119 243.932 155.966 243.932Z" fill="#263238"/>
<path d="M161.851 243.932C161.698 243.932 161.575 238.427 161.575 231.624C161.575 224.821 161.698 219.305 161.851 219.305C162.004 219.305 162.116 224.821 162.116 231.624C162.116 238.427 162.034 243.932 161.851 243.932Z" fill="#263238"/>
<path d="M167.725 243.932C167.572 243.932 167.46 238.427 167.46 231.624C167.46 224.821 167.572 219.305 167.725 219.305C167.878 219.305 167.99 224.821 167.99 231.624C167.99 238.427 167.868 243.932 167.725 243.932Z" fill="#263238"/>
<path d="M173.6 243.932C173.447 243.932 173.335 238.427 173.335 231.624C173.335 224.821 173.447 219.305 173.6 219.305C173.753 219.305 173.865 224.821 173.865 231.624C173.865 238.427 173.743 243.932 173.6 243.932Z" fill="#263238"/>
<path d="M179.475 243.932C179.332 243.932 179.209 238.427 179.209 231.624C179.209 224.821 179.332 219.305 179.475 219.305C179.617 219.305 179.74 224.821 179.74 231.624C179.74 238.427 179.617 243.932 179.475 243.932Z" fill="#263238"/>
<path d="M185.349 243.932C185.207 243.932 185.084 238.427 185.084 231.624C185.084 224.821 185.207 219.305 185.349 219.305C185.492 219.305 185.615 224.821 185.615 231.624C185.615 238.427 185.492 243.932 185.349 243.932Z" fill="#263238"/>
<path d="M345.058 231.526H320.264V263.719H345.058V231.526Z" fill="#263238"/>
<path d="M414.392 231.526H345.058V263.719H414.392V231.526Z" fill="#263238"/>
<path d="M333.176 263.709C333.023 263.709 332.911 256.568 332.911 247.759C332.911 238.95 333.023 231.799 333.176 231.799C333.329 231.799 333.441 238.939 333.441 247.759C333.441 256.579 333.319 263.709 333.176 263.709Z" fill="#455A64"/>
<path d="M345.058 263.709C344.915 263.709 344.793 256.568 344.793 247.759C344.793 238.95 344.915 231.799 345.058 231.799C345.201 231.799 345.323 238.939 345.323 247.759C345.323 256.579 345.201 263.709 345.058 263.709Z" fill="#455A64"/>
<path d="M410.496 260.035C410.496 260.035 410.496 259.882 410.496 259.588C410.496 259.293 410.496 258.857 410.496 258.312C410.496 257.167 410.496 255.532 410.445 253.428C410.445 249.176 410.445 243.039 410.353 235.407L410.526 235.604L348.046 235.691C347.812 235.952 348.363 235.353 348.312 235.418V241.785C348.312 243.889 348.312 245.982 348.312 248.043V260.035L348.057 259.762L392.76 259.893L405.804 259.969H409.303H410.22H410.537C410.442 259.987 410.346 259.987 410.251 259.969H409.374H405.916L392.933 260.045L348.057 260.176H347.802V259.893C347.802 256.034 347.802 252.033 347.802 247.901V235.429C347.74 235.484 348.301 234.884 348.067 235.135L410.547 235.233H410.73V235.418C410.73 243.104 410.659 249.274 410.639 253.548C410.639 255.641 410.639 257.266 410.588 258.399C410.588 258.923 410.588 259.337 410.588 259.642C410.574 259.777 410.543 259.909 410.496 260.035Z" fill="#455A64"/>
<path d="M352.84 260.035C352.687 260.035 352.575 254.529 352.575 247.726C352.575 240.924 352.687 235.407 352.84 235.407C352.993 235.407 353.105 240.924 353.105 247.726C353.105 254.529 352.983 260.035 352.84 260.035Z" fill="#455A64"/>
<path d="M358.715 260.035C358.572 260.035 358.449 254.529 358.449 247.726C358.449 240.924 358.572 235.407 358.715 235.407C358.857 235.407 358.98 240.924 358.98 247.726C358.98 254.529 358.878 260.035 358.715 260.035Z" fill="#455A64"/>
<path d="M364.589 260.035C364.447 260.035 364.324 254.529 364.324 247.726C364.324 240.924 364.447 235.407 364.589 235.407C364.732 235.407 364.855 240.924 364.855 247.726C364.855 254.529 364.732 260.035 364.589 260.035Z" fill="#455A64"/>
<path d="M370.464 260.035C370.321 260.035 370.199 254.529 370.199 247.726C370.199 240.924 370.321 235.407 370.464 235.407C370.607 235.407 370.729 240.924 370.729 247.726C370.729 254.529 370.617 260.035 370.464 260.035Z" fill="#455A64"/>
<path d="M376.339 260.035C376.196 260.035 376.074 254.529 376.074 247.726C376.074 240.924 376.196 235.407 376.339 235.407C376.482 235.407 376.604 240.924 376.604 247.726C376.604 254.529 376.492 260.035 376.339 260.035Z" fill="#455A64"/>
<path d="M382.224 260.035C382.071 260.035 381.959 254.529 381.959 247.726C381.959 240.924 382.071 235.407 382.224 235.407C382.377 235.407 382.489 240.924 382.489 247.726C382.489 254.529 382.336 260.035 382.224 260.035Z" fill="#455A64"/>
<path d="M388.099 260.035C387.946 260.035 387.833 254.529 387.833 247.726C387.833 240.924 387.946 235.407 388.099 235.407C388.252 235.407 388.364 240.924 388.364 247.726C388.364 254.529 388.241 260.035 388.099 260.035Z" fill="#455A64"/>
<path d="M393.973 260.035C393.83 260.035 393.708 254.529 393.708 247.726C393.708 240.924 393.83 235.407 393.973 235.407C394.116 235.407 394.238 240.924 394.238 247.726C394.238 254.529 394.116 260.035 393.973 260.035Z" fill="#455A64"/>
<path d="M399.848 260.035C399.705 260.035 399.583 254.529 399.583 247.726C399.583 240.924 399.705 235.407 399.848 235.407C399.991 235.407 400.113 240.924 400.113 247.726C400.113 254.529 400.001 260.035 399.848 260.035Z" fill="#455A64"/>
<path d="M405.723 260.035C405.58 260.035 405.457 254.529 405.457 247.726C405.457 240.924 405.58 235.407 405.723 235.407C405.865 235.407 405.988 240.924 405.988 247.726C405.988 254.529 405.876 260.035 405.723 260.035Z" fill="#455A64"/>
<path d="M348.944 296.316H324.15V328.509H348.944V296.316Z" fill="#FF6D00"/>
<path d="M418.288 296.316H348.954V328.509H418.288V296.316Z" fill="#FF6D00"/>
<path opacity="0.4" d="M418.288 296.316H348.954V328.509H418.288V296.316Z" fill="black"/>
<path d="M337.072 328.509C336.919 328.509 336.807 321.358 336.807 312.549C336.807 303.74 336.919 296.589 337.072 296.589C337.225 296.589 337.337 303.74 337.337 312.549C337.337 321.358 337.215 328.509 337.072 328.509Z" fill="#263238"/>
<path d="M414.392 324.835C414.392 324.835 414.392 324.672 414.392 324.388C414.392 324.105 414.392 323.647 414.392 323.102C414.392 322.012 414.392 320.322 414.392 318.218C414.392 313.966 414.341 307.839 414.3 300.208L414.474 300.393L351.994 300.491L352.259 300.208V303.413C352.259 304.503 352.259 305.539 352.259 306.586V324.835L351.994 324.563L396.707 324.683L409.741 324.759H413.25H414.168H414.484H414.198H413.311H409.864L396.88 324.835L352.004 324.966H351.749V312.843C351.749 310.783 351.749 308.701 351.749 306.586V300.208C351.749 300.263 352.259 299.663 352.024 299.925L414.504 300.012H414.688V300.208C414.688 307.839 414.616 314.053 414.586 318.338C414.586 320.42 414.586 322.044 414.586 323.178C414.586 323.702 414.586 324.116 414.586 324.421C414.54 324.568 414.474 324.708 414.392 324.835Z" fill="#263238"/>
<path d="M356.736 324.835C356.583 324.835 356.471 319.319 356.471 312.516C356.471 305.713 356.583 300.208 356.736 300.208C356.889 300.208 357.001 305.713 357.001 312.516C357.001 319.319 356.838 324.835 356.736 324.835Z" fill="#263238"/>
<path d="M362.611 324.835C362.458 324.835 362.346 319.319 362.346 312.516C362.346 305.713 362.458 300.208 362.611 300.208C362.764 300.208 362.876 305.713 362.876 312.516C362.876 319.319 362.754 324.835 362.611 324.835Z" fill="#263238"/>
<path d="M368.486 324.835C368.343 324.835 368.22 319.319 368.22 312.516C368.22 305.713 368.343 300.208 368.486 300.208C368.628 300.208 368.751 305.713 368.751 312.516C368.751 319.319 368.628 324.835 368.486 324.835Z" fill="#263238"/>
<path d="M374.36 324.835C374.217 324.835 374.095 319.319 374.095 312.516C374.095 305.713 374.217 300.208 374.36 300.208C374.503 300.208 374.625 305.713 374.625 312.516C374.625 319.319 374.503 324.835 374.36 324.835Z" fill="#263238"/>
<path d="M380.235 324.835C380.092 324.835 379.97 319.319 379.97 312.516C379.97 305.713 380.092 300.208 380.235 300.208C380.378 300.208 380.5 305.713 380.5 312.516C380.5 319.319 380.388 324.835 380.235 324.835Z" fill="#263238"/>
<path d="M386.11 324.835C385.967 324.835 385.844 319.319 385.844 312.516C385.844 305.713 385.967 300.208 386.11 300.208C386.252 300.208 386.385 305.713 386.385 312.516C386.385 319.319 386.263 324.835 386.11 324.835Z" fill="#263238"/>
<path d="M391.995 324.835C391.842 324.835 391.729 319.319 391.729 312.516C391.729 305.713 391.842 300.208 391.995 300.208C392.148 300.208 392.26 305.713 392.26 312.516C392.26 319.319 392.137 324.835 391.995 324.835Z" fill="#263238"/>
<path d="M397.869 324.835C397.716 324.835 397.604 319.319 397.604 312.516C397.604 305.713 397.716 300.208 397.869 300.208C398.022 300.208 398.135 305.713 398.135 312.516C398.135 319.319 398.012 324.835 397.869 324.835Z" fill="#263238"/>
<path d="M403.754 324.835C403.611 324.835 403.489 319.319 403.489 312.516C403.489 305.713 403.611 300.208 403.754 300.208C403.897 300.208 404.019 305.713 404.019 312.516C404.019 319.319 403.887 324.835 403.754 324.835Z" fill="#263238"/>
<path d="M409.619 324.835C409.476 324.835 409.354 319.319 409.354 312.516C409.354 305.713 409.476 300.208 409.619 300.208C409.762 300.208 409.884 305.713 409.884 312.516C409.884 319.319 409.772 324.835 409.619 324.835Z" fill="#263238"/>
<path d="M312.237 318.545H311.89H310.87L306.974 318.599L292.624 318.687L245.3 318.774C220.822 318.774 199.404 318.719 187.981 318.632L188.113 318.49C188.113 321.761 188.113 324.334 188.052 326.122C188.052 326.961 188.052 327.626 188.052 328.106C188.052 328.302 188.052 328.477 188.052 328.607C188.052 328.738 188.052 328.782 188.052 328.782C188.052 328.782 188.052 328.727 188.052 328.607V328.106C188.052 327.626 188.052 326.961 188.052 326.122C188.052 324.334 188.052 321.761 187.991 318.49V318.349H188.134C199.587 318.262 220.985 318.207 245.453 318.207L292.777 318.294L307.127 318.381L311.023 318.436H312.043L312.237 318.545Z" fill="#263238"/>
<path d="M301.936 327.659C301.583 324.658 301.583 321.622 301.936 318.621C302.29 321.622 302.29 324.658 301.936 327.659Z" fill="#263238"/>
<path d="M284.577 327.659C284.223 324.658 284.223 321.622 284.577 318.621C284.931 321.622 284.931 324.658 284.577 327.659Z" fill="#263238"/>
<path d="M267.218 327.659C266.864 324.658 266.864 321.622 267.218 318.621C267.572 321.622 267.572 324.658 267.218 327.659Z" fill="#263238"/>
<path d="M249.849 327.659C249.495 324.658 249.495 321.622 249.849 318.621C250.202 321.622 250.202 324.658 249.849 327.659Z" fill="#263238"/>
<path d="M232.49 327.659C232.136 324.658 232.136 321.622 232.49 318.621C232.843 321.622 232.843 324.658 232.49 327.659Z" fill="#263238"/>
<path d="M215.131 327.659C214.764 324.659 214.764 321.621 215.131 318.621C215.484 321.622 215.484 324.658 215.131 327.659Z" fill="#263238"/>
<path d="M197.731 327.659C197.378 324.658 197.378 321.622 197.731 318.621C198.085 321.622 198.085 324.658 197.731 327.659Z" fill="#263238"/>
<path d="M436.483 327.321C436.47 327.132 436.47 326.943 436.483 326.754C436.483 326.354 436.483 325.798 436.483 325.086C436.483 323.571 436.483 321.39 436.422 318.545L436.545 318.687C425.621 318.774 403.703 318.828 378.511 318.828L331.687 318.752L317.5 318.654H313.634H312.615C312.503 318.668 312.39 318.668 312.278 318.654H312.615H313.634L317.5 318.599L331.687 318.512L378.511 318.425C403.703 318.425 425.621 318.49 436.545 318.578H436.677V318.545C436.677 321.358 436.677 323.538 436.677 325.086C436.677 325.795 436.677 326.351 436.677 326.754C436.627 326.948 436.562 327.138 436.483 327.321Z" fill="#263238"/>
<path d="M391.515 327.692C391.162 324.691 391.162 321.655 391.515 318.654C391.869 321.655 391.869 324.691 391.515 327.692Z" fill="#263238"/>
<path d="M374.105 327.692C373.752 324.691 373.752 321.655 374.105 318.654C374.459 321.655 374.459 324.691 374.105 327.692Z" fill="#263238"/>
<path d="M356.736 327.692C356.382 324.691 356.382 321.655 356.736 318.654C357.103 321.654 357.103 324.692 356.736 327.692Z" fill="#263238"/>
<path d="M339.377 327.692C339.024 324.691 339.024 321.655 339.377 318.654C339.731 321.655 339.731 324.691 339.377 327.692Z" fill="#263238"/>
<path d="M322.018 327.692C321.665 324.691 321.665 321.655 322.018 318.654C322.372 321.655 322.372 324.691 322.018 327.692Z" fill="#263238"/>
<path d="M185.768 313.661C185.755 313.472 185.755 313.283 185.768 313.094C185.768 312.687 185.768 312.131 185.768 311.426C185.768 309.911 185.768 307.73 185.706 304.885L185.829 305.016C174.294 305.103 150.458 305.168 122.992 305.168C96.5862 305.168 73.5565 305.114 61.5826 305.027L61.7152 304.885C61.7152 308.155 61.7152 310.75 61.654 312.516C61.654 313.367 61.654 314.021 61.654 314.5C61.654 314.98 61.654 315.176 61.654 315.176C61.643 314.951 61.643 314.726 61.654 314.5C61.654 314.021 61.654 313.41 61.654 312.516C61.654 310.75 61.654 308.155 61.5928 304.885V304.743H61.7254C73.6992 304.656 96.7289 304.601 123.135 304.601C150.601 304.601 174.436 304.667 185.972 304.754H186.094V304.885C186.094 307.698 186.094 309.878 186.094 311.426C186.094 312.153 186.094 312.709 186.094 313.094C186.006 313.296 185.896 313.486 185.768 313.661Z" fill="#263238"/>
<path d="M175.477 314.021C175.123 311.02 175.123 307.984 175.477 304.983C175.83 307.984 175.83 311.02 175.477 314.021Z" fill="#263238"/>
<path d="M158.118 314.021C157.764 311.02 157.764 307.984 158.118 304.983C158.471 307.984 158.471 311.02 158.118 314.021Z" fill="#263238"/>
<path d="M140.748 314.021C140.395 311.02 140.395 307.984 140.748 304.983C141.102 307.984 141.102 311.02 140.748 314.021Z" fill="#263238"/>
<path d="M123.389 314.021C123.036 311.02 123.036 307.984 123.389 304.983C123.743 307.984 123.743 311.02 123.389 314.021Z" fill="#263238"/>
<path d="M106.031 314.021C105.677 311.02 105.677 307.984 106.031 304.983C106.384 307.984 106.384 311.02 106.031 314.021Z" fill="#263238"/>
<path d="M88.6613 314.021C88.3077 311.02 88.3077 307.984 88.6613 304.983C89.0149 307.984 89.0149 311.02 88.6613 314.021Z" fill="#263238"/>
<path d="M71.2616 314.021C70.9081 311.02 70.9081 307.984 71.2616 304.983C71.6152 307.984 71.6152 311.02 71.2616 314.021Z" fill="#263238"/>
<path d="M124.675 247.617H99.8804V279.81H124.675V247.617Z" fill="#FF6D00"/>
<path d="M194.019 247.617H124.685V279.81H194.019V247.617Z" fill="#FF6D00"/>
<path opacity="0.4" d="M194.019 247.617H124.685V279.81H194.019V247.617Z" fill="black"/>
<path d="M112.803 279.811C112.65 279.811 112.538 272.659 112.538 263.85C112.538 255.042 112.65 247.89 112.803 247.89C112.956 247.89 113.068 255.042 113.068 263.85C113.068 272.659 112.946 279.811 112.803 279.811Z" fill="#263238"/>
<path d="M190.123 276.137C190.123 276.137 190.123 275.973 190.123 275.69C190.123 275.406 190.123 274.948 190.123 274.403C190.123 273.313 190.123 271.623 190.123 269.519C190.123 265.267 190.072 259.141 190.031 251.509L190.204 251.695L127.724 251.793L127.989 251.509V254.714C127.989 255.805 127.989 256.84 127.989 257.887V276.137L127.734 275.864L172.437 275.984L185.472 276.06H188.98H189.898C190.003 276.051 190.109 276.051 190.214 276.06H189.929H189.041H185.594L172.611 276.137L127.734 276.267H127.357V257.734C127.357 256.644 127.357 255.619 127.357 254.562V251.357C127.357 251.411 127.867 250.812 127.632 251.073L190.112 251.16H190.296V251.357C190.296 258.988 190.225 265.202 190.194 269.486C190.194 271.569 190.194 273.193 190.194 274.327C190.194 274.85 190.194 275.264 190.194 275.57C190.201 275.762 190.177 275.954 190.123 276.137Z" fill="#263238"/>
<path d="M132.457 276.137C132.304 276.137 132.191 270.62 132.191 263.817C132.191 257.015 132.304 251.509 132.457 251.509C132.61 251.509 132.722 257.015 132.722 263.817C132.722 270.62 132.61 276.137 132.457 276.137Z" fill="#263238"/>
<path d="M138.341 276.137C138.188 276.137 138.076 270.62 138.076 263.817C138.076 257.015 138.188 251.509 138.341 251.509C138.494 251.509 138.607 257.015 138.607 263.817C138.607 270.62 138.484 276.137 138.341 276.137Z" fill="#263238"/>
<path d="M144.216 276.137C144.073 276.137 143.951 270.62 143.951 263.817C143.951 257.015 144.073 251.509 144.216 251.509C144.359 251.509 144.481 257.015 144.481 263.817C144.481 270.62 144.359 276.137 144.216 276.137Z" fill="#263238"/>
<path d="M150.091 276.137C149.948 276.137 149.826 270.62 149.826 263.817C149.826 257.015 149.948 251.509 150.091 251.509C150.234 251.509 150.356 257.015 150.356 263.817C150.356 270.62 150.244 276.137 150.091 276.137Z" fill="#263238"/>
<path d="M155.966 276.137C155.823 276.137 155.7 270.62 155.7 263.817C155.7 257.015 155.823 251.509 155.966 251.509C156.108 251.509 156.231 257.015 156.231 263.817C156.231 270.62 156.119 276.137 155.966 276.137Z" fill="#263238"/>
<path d="M161.851 276.137C161.698 276.137 161.575 270.62 161.575 263.817C161.575 257.015 161.698 251.509 161.851 251.509C162.004 251.509 162.116 257.015 162.116 263.817C162.116 270.62 162.034 276.137 161.851 276.137Z" fill="#263238"/>
<path d="M167.725 276.137C167.572 276.137 167.46 270.62 167.46 263.817C167.46 257.015 167.572 251.509 167.725 251.509C167.878 251.509 167.99 257.015 167.99 263.817C167.99 270.62 167.868 276.137 167.725 276.137Z" fill="#263238"/>
<path d="M173.6 276.137C173.447 276.137 173.335 270.62 173.335 263.817C173.335 257.015 173.447 251.509 173.6 251.509C173.753 251.509 173.865 257.015 173.865 263.817C173.865 270.62 173.743 276.137 173.6 276.137Z" fill="#263238"/>
<path d="M179.475 276.137C179.332 276.137 179.209 270.62 179.209 263.817C179.209 257.015 179.332 251.509 179.475 251.509C179.617 251.509 179.74 257.015 179.74 263.817C179.74 270.62 179.617 276.137 179.475 276.137Z" fill="#263238"/>
<path d="M185.349 276.137C185.207 276.137 185.084 270.62 185.084 263.817C185.084 257.015 185.207 251.509 185.349 251.509C185.492 251.509 185.615 257.015 185.615 263.817C185.615 270.62 185.492 276.137 185.349 276.137Z" fill="#263238"/>
<path d="M437.36 328.16V254.355H505.827V328.836" fill="#455A64"/>
<path d="M487.561 319.286H483.746V328.16H487.561V319.286Z" fill="#263238"/>
<path d="M445.295 307.327H442.899V313.661H445.295V307.327Z" fill="#263238"/>
<path d="M445.295 318.545H442.899V324.879H445.295V318.545Z" fill="#263238"/>
<path d="M459.054 307.327H456.657V313.661H459.054V307.327Z" fill="#263238"/>
<path d="M459.054 318.447H456.657V324.781H459.054V318.447Z" fill="#263238"/>
<path d="M472.813 307.327H470.416V313.661H472.813V307.327Z" fill="#263238"/>
<path d="M472.813 318.36H470.416V324.694H472.813V318.36Z" fill="#263238"/>
<path d="M486.571 307.327H484.175V313.661H486.571V307.327Z" fill="#263238"/>
<path d="M500.32 307.327H497.923V313.661H500.32V307.327Z" fill="#263238"/>
<path d="M500.32 317.989H497.923V324.323H500.32V317.989Z" fill="#263238"/>
<path d="M487.275 279.08H483.461V287.954H487.275V279.08Z" fill="#263238"/>
<path d="M445.295 262.084H442.899V268.418H445.295V262.084Z" fill="#263238"/>
<path d="M445.295 273.302H442.899V279.636H445.295V273.302Z" fill="#263238"/>
<path d="M459.054 262.084H456.657V268.418H459.054V262.084Z" fill="#263238"/>
<path d="M459.054 273.204H456.657V279.538H459.054V273.204Z" fill="#263238"/>
<path d="M472.813 262.084H470.416V268.418H472.813V262.084Z" fill="#263238"/>
<path d="M472.813 273.117H470.416V279.451H472.813V273.117Z" fill="#263238"/>
<path d="M486.571 262.084H484.175V268.418H486.571V262.084Z" fill="#263238"/>
<path d="M500.32 262.084H497.923V268.418H500.32V262.084Z" fill="#263238"/>
<path d="M500.32 272.746H497.923V279.08H500.32V272.746Z" fill="#263238"/>
<path d="M121.87 397.987C121.87 397.987 132.579 356.036 93.8629 346.486C57.6559 337.558 58.5432 313.661 58.5432 313.661H188.256V328.16H529.653C529.653 328.16 527.796 375.158 495.761 397.987" fill="#455A64"/>
<path d="M122.777 378.298H514.017C514.017 378.298 503.206 393.931 495.761 397.987H121.87C122.733 391.467 123.037 384.877 122.777 378.298Z" fill="#263238"/>
<path d="M503.91 287.954C503.865 287.685 503.848 287.41 503.859 287.137C503.859 286.559 503.859 285.774 503.859 284.793L503.961 284.902C498.137 285.011 484.103 285.076 467.723 285.076C451.343 285.076 437.299 285.011 431.476 284.902L431.578 284.793C431.578 285.774 431.578 286.559 431.527 287.137C431.538 287.41 431.521 287.685 431.476 287.954C431.443 287.683 431.426 287.41 431.425 287.137C431.425 286.559 431.425 285.774 431.374 284.793V284.749H431.476C437.299 284.651 451.333 284.575 467.723 284.575C484.113 284.575 498.137 284.651 503.961 284.749H504.063C504.063 285.73 504.063 286.515 504.063 287.093C504.037 287.385 503.985 287.673 503.91 287.954Z" fill="#263238"/>
<path d="M440.471 288.805C440.328 288.805 440.206 287.878 440.206 286.722C440.206 285.567 440.328 284.64 440.471 284.64C440.614 284.64 440.736 285.578 440.736 286.722C440.736 287.867 440.583 288.805 440.471 288.805Z" fill="#263238"/>
<path d="M450.018 288.805C449.875 288.805 449.752 287.878 449.752 286.722C449.752 285.567 449.875 284.64 450.018 284.64C450.16 284.64 450.283 285.578 450.283 286.722C450.283 287.867 450.171 288.805 450.018 288.805Z" fill="#263238"/>
<path d="M459.615 288.805C459.462 288.805 459.35 287.878 459.35 286.722C459.35 285.567 459.462 284.64 459.615 284.64C459.768 284.64 459.88 285.578 459.88 286.722C459.88 287.867 459.758 288.805 459.615 288.805Z" fill="#263238"/>
<path d="M469.202 288.805C469.049 288.805 468.937 287.878 468.937 286.722C468.937 285.567 469.049 284.64 469.202 284.64C469.355 284.64 469.467 285.578 469.467 286.722C469.467 287.867 469.345 288.805 469.202 288.805Z" fill="#263238"/>
<path d="M478.789 288.805C478.647 288.805 478.524 287.878 478.524 286.722C478.524 285.567 478.647 284.64 478.789 284.64C478.932 284.64 479.055 285.578 479.055 286.722C479.055 287.867 478.932 288.805 478.789 288.805Z" fill="#263238"/>
<path d="M488.407 288.805C488.264 288.805 488.142 287.878 488.142 286.722C488.142 285.567 488.264 284.64 488.407 284.64C488.55 284.64 488.672 285.578 488.672 286.722C488.672 287.867 488.53 288.805 488.407 288.805Z" fill="#263238"/>
<path d="M497.964 288.805C497.821 288.805 497.699 287.878 497.699 286.722C497.699 285.567 497.821 284.64 497.964 284.64C498.107 284.64 498.229 285.578 498.229 286.722C498.229 287.867 498.117 288.805 497.964 288.805Z" fill="#263238"/>
<path d="M505.817 287.954H429.997V296.043H505.817V287.954Z" fill="#263238"/>
<path opacity="0.4" d="M448.875 243.049H457.126L458.034 248.653H448.875V243.049Z" fill="white"/>
<path d="M529.326 327.321C529.315 327.128 529.315 326.936 529.326 326.743C529.326 326.318 529.326 325.762 529.326 325.042C529.326 323.516 529.326 321.336 529.255 318.578L529.398 318.73C520.218 318.817 503.716 318.861 484.939 318.861L447.713 318.785L436.392 318.687H433.332H432.536C432.445 318.701 432.352 318.701 432.261 318.687H432.536H433.332L436.392 318.632L447.672 318.545L484.899 318.458C503.675 318.458 520.157 318.512 529.357 318.589H529.5V318.545C529.5 321.303 529.5 323.483 529.428 325.01C529.428 325.729 529.428 326.285 529.428 326.71C529.414 326.917 529.38 327.122 529.326 327.321Z" fill="#263238"/>
<path d="M519.005 327.692C518.651 324.691 518.651 321.655 519.005 318.654C519.358 321.655 519.358 324.691 519.005 327.692Z" fill="#263238"/>
<path d="M501.666 327.692C501.3 324.692 501.3 321.654 501.666 318.654C502.02 321.655 502.02 324.691 501.666 327.692Z" fill="#263238"/>
<path d="M484.328 327.692C483.974 324.691 483.974 321.655 484.328 318.654C484.681 321.655 484.681 324.691 484.328 327.692Z" fill="#263238"/>
<path d="M466.989 327.692C466.635 324.691 466.635 321.655 466.989 318.654C467.343 321.655 467.343 324.691 466.989 327.692Z" fill="#263238"/>
<path d="M449.579 327.692C449.225 324.691 449.225 321.655 449.579 318.654C449.946 321.654 449.946 324.692 449.579 327.692Z" fill="#263238"/>
<path d="M432.22 327.692C431.867 324.691 431.867 321.655 432.22 318.654C432.574 321.655 432.574 324.691 432.22 327.692Z" fill="#263238"/>
<path d="M414.861 327.692C414.508 324.691 414.508 321.655 414.861 318.654C415.215 321.655 415.215 324.691 414.861 327.692Z" fill="#263238"/>
</svg>
